<svg width="52" height="52" viewBox="0 0 52 52" fill="none" xmlns="http://www.w3.org/2000/svg">
<g clip-path="url(#clip0_248_306)">
<path d="M35.75 6.5C31.98 6.5 28.3616 8.255 26 11.0283C23.6383 8.255 20.02 6.5 16.25 6.5C9.57665 6.5 4.33331 11.7433 4.33331 18.4167C4.33331 26.6067 11.7 33.28 22.8583 43.42L26 46.2583L29.1416 43.3983C40.3 33.28 47.6666 26.6067 47.6666 18.4167C47.6666 11.7433 42.4233 6.5 35.75 6.5ZM26.2166 40.1917L26 40.4083L25.7833 40.1917C15.47 30.8533 8.66665 24.6783 8.66665 18.4167C8.66665 14.0833 11.9166 10.8333 16.25 10.8333C19.5866 10.8333 22.8366 12.9783 23.985 15.9467H28.0366C29.1633 12.9783 32.4133 10.8333 35.75 10.8333C40.0833 10.8333 43.3333 14.0833 43.3333 18.4167C43.3333 24.6783 36.53 30.8533 26.2166 40.1917Z" fill="#2E9455"/>
</g>
<defs>
<clipPath id="clip0_248_306">
<rect width="52" height="52" fill="white"/>
</clipPath>
</defs>
</svg>
