<svg width="41" height="40" viewBox="0 0 41 40" fill="none" xmlns="http://www.w3.org/2000/svg">
<path fill-rule="evenodd" clip-rule="evenodd" d="M20.529 29.75C26.1675 29.75 30.7384 25.3848 30.7384 20C30.7384 14.6152 26.1675 10.25 20.529 10.25C14.8905 10.25 10.3196 14.6152 10.3196 20C10.3196 25.3848 14.8905 29.75 20.529 29.75ZM20.529 26.5C24.2879 26.5 27.3353 23.5898 27.3353 20C27.3353 16.4101 24.2879 13.5 20.529 13.5C16.77 13.5 13.7227 16.4101 13.7227 20C13.7227 23.5898 16.77 26.5 20.529 26.5Z" fill="#FAFAFA"/>
<path d="M30.7384 8.625C29.7987 8.625 29.0369 9.35254 29.0369 10.25C29.0369 11.1475 29.7987 11.875 30.7384 11.875C31.6782 11.875 32.44 11.1475 32.44 10.25C32.44 9.35254 31.6782 8.625 30.7384 8.625Z" fill="#FAFAFA"/>
<path fill-rule="evenodd" clip-rule="evenodd" d="M2.92453 7.4486C1.81177 9.53424 1.81177 12.2645 1.81177 17.725V22.275C1.81177 27.7355 1.81177 30.4658 2.92453 32.5513C3.90334 34.386 5.46518 35.8776 7.38622 36.8123C9.57013 37.875 12.429 37.875 18.1468 37.875H22.9112C28.629 37.875 31.488 37.875 33.6718 36.8123C35.5929 35.8776 37.1548 34.386 38.1335 32.5513C39.2463 30.4658 39.2463 27.7355 39.2463 22.275V17.725C39.2463 12.2645 39.2463 9.53424 38.1335 7.4486C37.1548 5.61401 35.5929 4.12245 33.6718 3.18769C31.488 2.125 28.629 2.125 22.9112 2.125H18.1468C12.429 2.125 9.57013 2.125 7.38622 3.18769C5.46518 4.12245 3.90334 5.61401 2.92453 7.4486ZM22.9112 5.375H18.1468C15.2318 5.375 13.2502 5.37753 11.7184 5.49704C10.2264 5.61345 9.46346 5.82446 8.93121 6.08345C7.65052 6.70664 6.60929 7.70101 5.95674 8.92407C5.68555 9.43236 5.4646 10.161 5.3427 11.5859C5.21756 13.0487 5.21491 14.9411 5.21491 17.725V22.275C5.21491 25.0589 5.21756 26.9513 5.3427 28.4141C5.4646 29.8391 5.68555 30.5677 5.95674 31.076C6.60929 32.299 7.65052 33.2933 8.93121 33.9165C9.46346 34.1755 10.2264 34.3866 11.7184 34.503C13.2502 34.6224 15.2318 34.625 18.1468 34.625H22.9112C25.8264 34.625 27.8079 34.6224 29.3396 34.503C30.8317 34.3866 31.5947 34.1755 32.1269 33.9165C33.4076 33.2933 34.4487 32.299 35.1013 31.076C35.3725 30.5677 35.5936 29.8391 35.7154 28.4141C35.8405 26.9513 35.8432 25.0589 35.8432 22.275V17.725C35.8432 14.9411 35.8405 13.0487 35.7154 11.5859C35.5936 10.161 35.3725 9.43236 35.1013 8.92407C34.4487 7.70101 33.4076 6.70664 32.1269 6.08345C31.5947 5.82446 30.8317 5.61345 29.3396 5.49704C27.8079 5.37753 25.8264 5.375 22.9112 5.375Z" fill="#FAFAFA"/>
</svg>
