<svg width="46" height="38" viewBox="0 0 46 38" fill="none" xmlns="http://www.w3.org/2000/svg">
<path fill-rule="evenodd" clip-rule="evenodd" d="M38.4417 2.5399C39.155 2.37174 39.6523 2.20641 40.0598 2.03278C40.6308 1.78941 41.1042 1.49788 41.8523 1.00689C42.4808 0.59425 43.2863 0.558317 43.9494 0.913327C44.6126 1.26834 45.0262 1.95694 45.0262 2.70605C45.0262 4.90665 44.7505 6.71029 44.1124 8.29757C43.5753 9.6327 42.8209 10.7171 41.9186 11.7041C41.5375 18.5509 39.5451 23.9278 36.4991 28.0013C33.3419 32.2234 29.1414 34.9272 24.7135 36.4415C20.2985 37.951 15.6337 38.2884 11.4546 37.7772C7.30289 37.2694 3.4652 35.9022 0.790261 33.8327C0.0577284 33.266 -0.199773 32.2798 0.162885 31.43C0.525549 30.5803 1.41758 30.0797 2.33627 30.2104C4.96818 30.5843 7.5017 29.9891 9.58497 29.1381C9.17486 28.9162 8.78819 28.6759 8.42878 28.4284C6.53046 27.1212 4.99886 25.3465 4.3095 23.975C4.02421 23.4076 4.02127 22.74 4.30153 22.1702C4.44611 21.876 4.65753 21.6254 4.91422 21.4343C2.14252 19.1588 1.02345 16.0116 1.02345 13.9032C1.02345 13.2763 1.31383 12.6843 1.81059 12.2985C2.01947 12.1363 2.25504 12.0181 2.50336 11.9469C2.29595 11.3428 2.135 10.7325 2.01233 10.1416C1.46839 7.52171 1.51667 4.56473 2.10789 2.2123C2.3102 1.40728 2.98342 0.80498 3.80954 0.689873C4.63565 0.574787 5.44933 0.969944 5.86619 1.6887C8.07146 5.491 12.1391 7.81514 15.9248 9.19188C17.7046 9.83915 19.353 10.2516 20.5885 10.5052C20.8552 8.02027 21.5527 5.97101 22.6233 4.34338C24.0357 2.19599 26.0056 0.925481 28.121 0.358967C31.7695 -0.618033 35.818 0.495043 38.4417 2.5399ZM19.9516 14.5314C18.5494 14.2513 16.6224 13.7808 14.5192 13.016C11.7415 12.0058 8.51597 10.4307 5.81408 7.99079C5.86244 8.43977 5.93109 8.88495 6.02102 9.31806C6.47383 11.4991 7.31525 12.7206 8.07866 13.1003C9.01236 13.5647 9.44506 14.6537 9.08287 15.6276C8.59249 16.9462 7.30274 17.0543 6.13088 16.763C7.0734 18.1686 8.76748 19.57 11.5931 20.0385C12.5677 20.2001 13.2871 21.0312 13.303 22.0139C13.319 22.9966 12.6269 23.8502 11.658 24.043L9.87651 24.3974C10.149 24.633 10.4441 24.864 10.7587 25.0807C12.1851 26.0629 13.6172 26.4866 14.8535 26.1792C15.7795 25.9489 16.7426 26.3858 17.1748 27.2325C17.6069 28.079 17.3934 29.1104 16.6602 29.7181C15.3423 30.8093 13.8032 31.6849 12.2607 32.4115C11.5365 32.7527 10.7273 33.0895 9.84837 33.3859C10.5243 33.5294 11.2277 33.6471 11.9541 33.736C15.5779 34.1792 19.6112 33.8804 23.3828 32.5909C27.1414 31.3056 30.6156 29.0471 33.2148 25.5713C35.8102 22.1002 37.6214 17.2966 37.8644 10.7742C37.8834 10.2607 38.0971 9.77333 38.4624 9.40998C39.3826 8.49456 40.1431 7.44531 40.5172 6.19638C39.8625 6.39941 39.1253 6.57515 38.2473 6.74213C37.5811 6.8688 36.8953 6.65904 36.4158 6.18207C34.8511 4.6256 31.7566 3.60206 29.185 4.29067C27.9748 4.61475 26.8748 5.31634 26.0485 6.57252C25.2051 7.85506 24.5598 9.85306 24.5598 12.8853C24.5598 13.4614 24.3144 14.0106 23.8846 14.3966C22.8654 15.3117 21.1501 14.7708 19.9516 14.5314Z" fill="#FAFAFA"/>
</svg>
